<svg xmlns="http://www.w3.org/2000/svg" viewBox="0 0 1600 820" width="1600" height="820">
  <defs>
      <linearGradient id="g21127-bg" x1="0" y1="0" x2="1" y2="1">
        <stop offset="0%" stop-color="#27432f"/>
        <stop offset="55%" stop-color="#16281c"/>
        <stop offset="100%" stop-color="#0a140d"/>
      </linearGradient>
      <radialGradient id="g21127-glow" cx="78%" cy="18%" r="60%">
        <stop offset="0%" stop-color="#3fc456" stop-opacity="0.35"/>
        <stop offset="100%" stop-color="#3fc456" stop-opacity="0"/>
      </radialGradient>
    </defs>
  <rect width="1600" height="820" fill="url(#g21127-bg)"/>
  <g stroke="#ffffff" stroke-width="1" opacity="0.05"><line x1="0" y1="0" x2="0" y2="820"/><line x1="40" y1="0" x2="40" y2="820"/><line x1="80" y1="0" x2="80" y2="820"/><line x1="120" y1="0" x2="120" y2="820"/><line x1="160" y1="0" x2="160" y2="820"/><line x1="200" y1="0" x2="200" y2="820"/><line x1="240" y1="0" x2="240" y2="820"/><line x1="280" y1="0" x2="280" y2="820"/><line x1="320" y1="0" x2="320" y2="820"/><line x1="360" y1="0" x2="360" y2="820"/><line x1="400" y1="0" x2="400" y2="820"/><line x1="440" y1="0" x2="440" y2="820"/><line x1="480" y1="0" x2="480" y2="820"/><line x1="520" y1="0" x2="520" y2="820"/><line x1="560" y1="0" x2="560" y2="820"/><line x1="600" y1="0" x2="600" y2="820"/><line x1="640" y1="0" x2="640" y2="820"/><line x1="680" y1="0" x2="680" y2="820"/><line x1="720" y1="0" x2="720" y2="820"/><line x1="760" y1="0" x2="760" y2="820"/><line x1="800" y1="0" x2="800" y2="820"/><line x1="840" y1="0" x2="840" y2="820"/><line x1="880" y1="0" x2="880" y2="820"/><line x1="920" y1="0" x2="920" y2="820"/><line x1="960" y1="0" x2="960" y2="820"/><line x1="1000" y1="0" x2="1000" y2="820"/><line x1="1040" y1="0" x2="1040" y2="820"/><line x1="1080" y1="0" x2="1080" y2="820"/><line x1="1120" y1="0" x2="1120" y2="820"/><line x1="1160" y1="0" x2="1160" y2="820"/><line x1="1200" y1="0" x2="1200" y2="820"/><line x1="1240" y1="0" x2="1240" y2="820"/><line x1="1280" y1="0" x2="1280" y2="820"/><line x1="1320" y1="0" x2="1320" y2="820"/><line x1="1360" y1="0" x2="1360" y2="820"/><line x1="1400" y1="0" x2="1400" y2="820"/><line x1="1440" y1="0" x2="1440" y2="820"/><line x1="1480" y1="0" x2="1480" y2="820"/><line x1="1520" y1="0" x2="1520" y2="820"/><line x1="1560" y1="0" x2="1560" y2="820"/><line x1="1600" y1="0" x2="1600" y2="820"/><line x1="0" y1="0" x2="1600" y2="0"/><line x1="0" y1="40" x2="1600" y2="40"/><line x1="0" y1="80" x2="1600" y2="80"/><line x1="0" y1="120" x2="1600" y2="120"/><line x1="0" y1="160" x2="1600" y2="160"/><line x1="0" y1="200" x2="1600" y2="200"/><line x1="0" y1="240" x2="1600" y2="240"/><line x1="0" y1="280" x2="1600" y2="280"/><line x1="0" y1="320" x2="1600" y2="320"/><line x1="0" y1="360" x2="1600" y2="360"/><line x1="0" y1="400" x2="1600" y2="400"/><line x1="0" y1="440" x2="1600" y2="440"/><line x1="0" y1="480" x2="1600" y2="480"/><line x1="0" y1="520" x2="1600" y2="520"/><line x1="0" y1="560" x2="1600" y2="560"/><line x1="0" y1="600" x2="1600" y2="600"/><line x1="0" y1="640" x2="1600" y2="640"/><line x1="0" y1="680" x2="1600" y2="680"/><line x1="0" y1="720" x2="1600" y2="720"/><line x1="0" y1="760" x2="1600" y2="760"/><line x1="0" y1="800" x2="1600" y2="800"/></g>
  <rect width="1600" height="820" fill="url(#g21127-glow)"/>
  <g transform="translate(1118.0,280.0) scale(10.833333333333334)" fill="none" stroke="#3fc456" stroke-width="0.12" stroke-linecap="round" stroke-linejoin="round" opacity="0.4"><circle cx="12" cy="12" r="3"/><path d="M19.4 15a1.7 1.7 0 0 0 .34 1.87l.06.06a2 2 0 1 1-2.83 2.83l-.06-.06a1.7 1.7 0 0 0-1.87-.34 1.7 1.7 0 0 0-1 1.55V21a2 2 0 0 1-4 0v-.09A1.7 1.7 0 0 0 9 19.36a1.7 1.7 0 0 0-1.87.34l-.06.06a2 2 0 1 1-2.83-2.83l.06-.06A1.7 1.7 0 0 0 4.64 15a1.7 1.7 0 0 0-1.55-1H3a2 2 0 0 1 0-4h.09A1.7 1.7 0 0 0 4.64 9a1.7 1.7 0 0 0-.34-1.87l-.06-.06a2 2 0 1 1 2.83-2.83l.06.06A1.7 1.7 0 0 0 9 4.64a1.7 1.7 0 0 0 1-1.55V3a2 2 0 0 1 4 0v.09a1.7 1.7 0 0 0 1 1.55 1.7 1.7 0 0 0 1.87-.34l.06-.06a2 2 0 1 1 2.83 2.83l-.06.06A1.7 1.7 0 0 0 19.36 9c.27.61.85 1 1.55 1H21a2 2 0 0 1 0 4h-.09a1.7 1.7 0 0 0-1.51 1z"/></g><g transform="translate(191.0,181.0) scale(5.416666666666667)" fill="none" stroke="#3fc456" stroke-width="0.24" stroke-linecap="round" stroke-linejoin="round" opacity="0.3"><path d="M13 2L4 14h6l-1 8 9-12h-6l1-8z"/></g><g transform="translate(260.0,530.4) scale(5.0)" fill="none" stroke="#3fc456" stroke-width="0.26" stroke-linecap="round" stroke-linejoin="round" opacity="0.25"><circle cx="12" cy="12" r="4.5"/><path d="M12 2v3M12 19v3M4.2 4.2l2.1 2.1M17.7 17.7l2.1 2.1M2 12h3M19 12h3M4.2 19.8l2.1-2.1M17.7 6.3l2.1-2.1"/></g>
  <rect width="1600" height="820" fill="none" stroke="#3fc456" stroke-opacity="0.18" stroke-width="2"/>
</svg>